<svg xmlns="http://www.w3.org/2000/svg" xmlns:xlink="http://www.w3.org/1999/xlink" width="120" height="50" preserveAspectRatio="xMidYMid meet" version="1.0" viewBox="0 0 90 37.5" zoomAndPan="magnify"><defs><clipPath id="id1"><path d="M 1.515625 3.699219 L 9.65625 3.699219 L 9.65625 32.566406 L 1.515625 32.566406 Z M 1.515625 3.699219" clip-rule="nonzero"/></clipPath><clipPath id="id2"><path d="M 80.339844 3.851562 L 88.480469 3.851562 L 88.480469 32.714844 L 80.339844 32.714844 Z M 80.339844 3.851562" clip-rule="nonzero"/></clipPath></defs><g clip-path="url(#id1)"><path fill="teal" fill-opacity="1" fill-rule="nonzero" d="M 9.097656 32.527344 C 7.394531 32.527344 5.828125 31.769531 4.796875 30.449219 C 3.761719 29.125 3.421875 27.445312 3.867188 25.839844 L 4.402344 23.902344 C 4.996094 21.753906 3.917969 19.535156 1.84375 18.628906 C 1.640625 18.542969 1.511719 18.347656 1.511719 18.132812 C 1.511719 17.917969 1.640625 17.722656 1.84375 17.632812 C 3.917969 16.726562 4.996094 14.507812 4.402344 12.359375 L 3.867188 10.421875 C 3.421875 8.816406 3.761719 7.136719 4.796875 5.8125 C 5.828125 4.492188 7.394531 3.734375 9.097656 3.734375 C 9.402344 3.734375 9.652344 3.976562 9.652344 4.28125 C 9.652344 4.582031 9.402344 4.824219 9.097656 4.824219 C 7.746094 4.824219 6.5 5.425781 5.679688 6.476562 C 4.859375 7.527344 4.589844 8.863281 4.941406 10.136719 L 5.476562 12.074219 C 6.121094 14.410156 5.179688 16.8125 3.207031 18.132812 C 5.179688 19.449219 6.121094 21.851562 5.476562 24.1875 L 4.941406 26.125 C 4.589844 27.402344 4.859375 28.734375 5.679688 29.785156 C 6.5 30.835938 7.746094 31.4375 9.097656 31.4375 C 9.402344 31.4375 9.652344 31.683594 9.652344 31.984375 C 9.652344 32.285156 9.402344 32.527344 9.097656 32.527344"/></g><g clip-path="url(#id2)"><path fill="teal" fill-opacity="1" fill-rule="nonzero" d="M 80.898438 3.886719 C 82.601562 3.886719 84.167969 4.644531 85.203125 5.96875 C 86.234375 7.289062 86.574219 8.96875 86.128906 10.578125 L 85.59375 12.515625 C 85 14.664062 86.078125 16.878906 88.152344 17.789062 C 88.355469 17.875 88.484375 18.070312 88.484375 18.285156 C 88.484375 18.5 88.355469 18.695312 88.152344 18.785156 C 86.078125 19.691406 85 21.90625 85.59375 24.058594 L 86.128906 25.992188 C 86.574219 27.601562 86.234375 29.28125 85.203125 30.601562 C 84.167969 31.925781 82.601562 32.683594 80.898438 32.683594 C 80.59375 32.683594 80.34375 32.4375 80.34375 32.136719 C 80.34375 31.835938 80.59375 31.59375 80.898438 31.59375 C 82.25 31.59375 83.496094 30.988281 84.316406 29.9375 C 85.136719 28.890625 85.40625 27.554688 85.054688 26.277344 L 84.519531 24.339844 C 83.875 22.003906 84.816406 19.605469 86.789062 18.285156 C 84.816406 16.964844 83.875 14.566406 84.519531 12.230469 L 85.054688 10.292969 C 85.40625 9.015625 85.136719 7.679688 84.316406 6.632812 C 83.496094 5.582031 82.25 4.980469 80.898438 4.980469 C 80.59375 4.980469 80.34375 4.734375 80.34375 4.433594 C 80.34375 4.132812 80.59375 3.886719 80.898438 3.886719"/></g><g fill="teal" fill-opacity="1"><g><g><path d="M 1.75 0 L 5.667969 0 C 10.230469 0 12.75 -2.460938 12.75 -6.6875 C 12.75 -11.097656 10.308594 -13.574219 5.6875 -13.574219 L 1.75 -13.574219 Z M 4.1875 -2.238281 L 4.1875 -11.335938 L 5.648438 -11.335938 C 8.992188 -11.335938 10.308594 -10.011719 10.308594 -6.792969 C 10.308594 -3.402344 8.425781 -2.238281 5.429688 -2.238281 Z M 4.1875 -2.238281" transform="translate(9.53255, 24.038152)"/></g></g></g><g fill="teal" fill-opacity="1"><g><g><path d="M 5.390625 0.191406 C 7.003906 0.191406 8.28125 -0.375 9.328125 -1.539062 L 7.714844 -2.949219 C 7.042969 -2.199219 6.273438 -1.929688 5.410156 -1.929688 C 3.902344 -1.929688 3.207031 -2.777344 3.007812 -4.035156 L 9.597656 -4.035156 C 9.644531 -4.167969 9.683594 -4.5625 9.683594 -4.957031 C 9.683594 -7.101562 8.597656 -9.800781 5.234375 -9.800781 C 1.988281 -9.800781 0.527344 -7.261719 0.527344 -4.765625 C 0.527344 -2.179688 2.085938 0.191406 5.390625 0.191406 Z M 3.007812 -5.726562 C 3.226562 -6.925781 3.832031 -7.828125 5.214844 -7.828125 C 6.4375 -7.828125 7.226562 -7.101562 7.378906 -5.726562 Z M 3.007812 -5.726562" transform="translate(23.068123, 24.038152)"/></g></g></g><g fill="teal" fill-opacity="1"><g><g><path d="M 3.832031 0 L 5.765625 0 L 9.683594 -9.597656 L 7.136719 -9.597656 L 4.804688 -3.027344 L 2.480469 -9.597656 L -0.078125 -9.597656 Z M 3.832031 0" transform="translate(33.318268, 24.038152)"/></g></g></g><g fill="teal" fill-opacity="1"><g><g><path d="M 1.75 0 L 10.78125 0 L 10.78125 -2.304688 L 4.1875 -2.304688 L 4.1875 -5.667969 L 10.328125 -5.667969 L 10.328125 -7.90625 L 4.1875 -7.90625 L 4.1875 -11.335938 L 10.78125 -11.335938 L 10.78125 -13.574219 L 1.75 -13.574219 Z M 1.75 0" transform="translate(47.641575, 24.038152)"/></g></g></g><g fill="teal" fill-opacity="1"><g><g><path d="M 3.34375 0.191406 C 3.902344 0.191406 4.601562 0.0976562 5.09375 0 L 5.09375 -1.96875 C 4.84375 -1.929688 4.582031 -1.910156 4.449219 -1.910156 C 3.976562 -1.910156 3.679688 -2.105469 3.679688 -2.554688 L 3.679688 -13.574219 L 1.335938 -13.574219 L 1.335938 -1.910156 C 1.335938 -0.222656 2.238281 0.191406 3.34375 0.191406 Z M 3.34375 0.191406" transform="translate(59.60168, 24.038152)"/></g></g></g><g fill="teal" fill-opacity="1"><g><g><path d="M 1.335938 -11.414062 L 3.777344 -11.414062 L 3.777344 -13.574219 L 1.335938 -13.574219 Z M 1.394531 0 L 3.71875 0 L 3.71875 -9.597656 L 1.394531 -9.597656 Z M 1.394531 0" transform="translate(65.10621, 24.038152)"/></g></g></g><g fill="teal" fill-opacity="1"><g><g><path d="M 5.390625 0.191406 C 7.003906 0.191406 8.28125 -0.375 9.328125 -1.539062 L 7.714844 -2.949219 C 7.042969 -2.199219 6.273438 -1.929688 5.410156 -1.929688 C 3.902344 -1.929688 3.207031 -2.777344 3.007812 -4.035156 L 9.597656 -4.035156 C 9.644531 -4.167969 9.683594 -4.5625 9.683594 -4.957031 C 9.683594 -7.101562 8.597656 -9.800781 5.234375 -9.800781 C 1.988281 -9.800781 0.527344 -7.261719 0.527344 -4.765625 C 0.527344 -2.179688 2.085938 0.191406 5.390625 0.191406 Z M 3.007812 -5.726562 C 3.226562 -6.925781 3.832031 -7.828125 5.214844 -7.828125 C 6.4375 -7.828125 7.226562 -7.101562 7.378906 -5.726562 Z M 3.007812 -5.726562" transform="translate(70.216873, 24.038152)"/></g></g></g></svg>