<?xml version="1.0" standalone="no"?>
<!DOCTYPE svg PUBLIC "-//W3C//DTD SVG 20010904//EN"
 "http://www.w3.org/TR/2001/REC-SVG-20010904/DTD/svg10.dtd">
<svg version="1.0" xmlns="http://www.w3.org/2000/svg"
 width="231.000000pt" height="88.000000pt" viewBox="0 0 231.000000 88.000000"
 preserveAspectRatio="xMidYMid meet">

<g transform="translate(0.000000,88.000000) scale(0.100000,-0.100000)"
fill="#000000" stroke="none">
<path d="M149 750 c-47 -25 -74 -79 -65 -131 3 -22 9 -57 12 -79 8 -49 -9 -94
-46 -120 l-28 -20 40 -40 c44 -44 43 -30 23 -180 -11 -80 53 -157 122 -148 25
4 26 5 8 12 -72 27 -87 38 -102 74 -13 30 -13 46 -4 85 21 92 9 153 -36 180
-11 7 -8 15 12 38 33 40 39 69 30 132 -15 97 -11 124 20 157 16 16 43 33 62
36 18 3 30 10 27 15 -8 14 -36 10 -75 -11z"/>
<path d="M2055 760 c3 -5 14 -10 23 -10 9 0 31 -9 48 -19 43 -26 60 -77 45
-136 -6 -24 -11 -61 -11 -82 0 -39 31 -103 51 -103 6 0 -1 -14 -15 -31 -34
-40 -40 -69 -31 -132 15 -97 11 -124 -20 -157 -16 -16 -44 -33 -62 -36 -23 -4
-31 -10 -25 -16 16 -16 70 1 101 33 38 38 46 76 30 153 -15 76 -7 110 32 147
16 15 29 29 29 32 0 3 -16 21 -36 41 -39 39 -40 42 -19 171 9 54 -14 109 -57
135 -34 21 -94 28 -83 10z"/>
<path d="M280 425 l0 -178 80 6 c87 6 129 24 164 70 30 41 30 163 0 204 -34
46 -74 63 -163 70 l-81 6 0 -178z m131 115 c87 0 115 -156 39 -211 -14 -10
-45 -20 -70 -21 l-45 -3 -3 109 c-3 128 0 141 31 132 12 -3 34 -6 48 -6z"/>
<path d="M1260 425 l0 -175 110 0 110 0 0 30 0 30 -85 0 -85 0 0 45 0 45 80 0
c79 0 80 0 80 25 0 25 -1 25 -81 25 l-80 0 3 48 3 47 83 3 c80 3 82 3 82 27
l0 25 -110 0 -110 0 0 -175z"/>
<path d="M1550 444 c0 -88 4 -164 10 -175 8 -13 21 -19 45 -19 31 0 35 3 35
25 0 16 -6 25 -15 25 -13 0 -15 23 -15 150 l0 150 -30 0 -30 0 0 -156z"/>
<path d="M1700 575 c0 -20 5 -25 25 -25 20 0 25 5 25 25 0 20 -5 25 -25 25
-20 0 -25 -5 -25 -25z"/>
<path d="M664 491 c-54 -24 -85 -103 -64 -166 22 -66 111 -96 181 -59 29 15
30 16 14 34 -13 15 -22 17 -36 10 -29 -16 -75 -12 -92 8 -32 35 -21 42 69 42
l87 0 -6 42 c-7 53 -42 88 -93 94 -21 2 -49 0 -60 -5z m90 -63 c22 -31 12 -38
-50 -38 -58 0 -66 10 -37 42 22 25 68 23 87 -4z"/>
<path d="M1868 484 c-63 -34 -79 -140 -30 -195 35 -39 102 -50 150 -25 36 18
39 28 17 46 -12 10 -19 10 -27 2 -29 -29 -108 -4 -108 34 0 11 18 14 86 14
l86 0 -7 36 c-16 89 -92 129 -167 88z m102 -53 c18 -35 12 -41 -45 -41 -46 0
-55 3 -55 18 0 27 20 42 57 42 22 0 36 -6 43 -19z"/>
<path d="M850 482 c0 -5 21 -60 46 -121 39 -94 50 -111 69 -111 18 0 28 16 64
108 24 59 45 113 48 120 3 8 -5 12 -24 12 -28 0 -31 -4 -58 -80 -15 -45 -30
-78 -34 -75 -3 4 -17 39 -31 78 -22 64 -28 72 -52 75 -16 2 -28 -1 -28 -6z"/>
<path d="M1700 370 l0 -120 25 0 25 0 0 120 0 120 -25 0 -25 0 0 -120z"/>
</g>
</svg>
